<svg width="145" height="144" viewBox="0 0 145 144" fill="none" xmlns="http://www.w3.org/2000/svg">
<path d="M71.9981 0C32.2363 0 0 32.2365 0 71.9988C0 111.762 32.235 144 71.9981 144C111.762 144 144 111.762 144 71.9988C143.999 32.2365 111.762 0 71.9981 0V0ZM42.1223 32.4731C47.0198 32.4731 50.9924 36.0959 50.9924 40.5652C50.9924 45.0345 47.0198 48.6573 42.1223 48.6573C37.2222 48.6573 33.2521 45.0345 33.2521 40.5652C33.2521 36.0959 37.2222 32.4731 42.1223 32.4731ZM51.0596 101.686H33.5335V55.9527H51.0596V101.686ZM110.615 101.686H93.0039V76.5378C93.0039 73.667 92.471 71.6352 91.4091 70.4426C90.3459 69.2524 88.8533 68.6548 86.9323 68.6548C84.8072 68.6548 83.083 69.4591 81.7634 71.0675C80.4425 72.676 79.7839 75.5605 79.7839 79.7236V101.686H62.2565V55.9527H78.5763V63.4012C81.0152 60.3598 83.4851 58.1849 85.9824 56.8777C88.4798 55.5717 91.5211 54.9194 95.1103 54.9194C99.963 54.9194 103.759 56.361 106.501 59.2468C109.241 62.1313 110.613 66.5882 110.613 72.6175V101.686H110.615Z" fill="#333333"/>
</svg>
